<svg xmlns="http://www.w3.org/2000/svg" xmlns:xlink="http://www.w3.org/1999/xlink" xmlns:svgjs="http://svgjs.com/svgjs" version="1.1" width="512" height="320" x="0" y="0" viewBox="0 0 128 128" style="enable-background:new 0 0 512 512" xml:space="preserve" class=""><g><g><path d="m70.936 45.303c-2.176 0-3.945 1.77-3.945 3.945s1.77 3.945 3.945 3.945 3.943-1.77 3.943-3.945-1.769-3.945-3.943-3.945z" fill="#72788866" data-original="#000000" class=""/><path d="m110.896 30.955h-93.792c-1.104 0-2 .896-2 2v62.09c0 1.104.896 2 2 2h50.836c.59 0 1.15-.261 1.53-.712l42.957-51.045c.304-.36.47-.816.47-1.288v-11.045c-.001-1.104-.896-2-2.001-2zm-32.417 20.769c-1.043 3.172-4.027 5.47-7.543 5.47-1.979 0-3.787-.732-5.18-1.934-1.689-1.458-2.766-3.61-2.766-6.012 0-4.381 3.564-7.945 7.945-7.945 4.38 0 7.943 3.564 7.943 7.945.001.865-.143 1.695-.399 2.476zm12.416 12.938-3.213-3.214-14.551 14.552 4.465 4.465-2.174 2.583-.411.488-6.122-6.122-18.018-18.018-7.32-7.32-12.954 12.954-11.493 11.493v-5.656l3.659-3.659 19.374-19.374c.391-.391.902-.586 1.414-.586s1.023.195 1.414.586l10.332 10.332 15.006 15.006 15.965-15.967c.375-.375.884-.586 1.414-.586s1.039.211 1.414.586l4.384 4.385 15.417-18.319z" fill="#72788866" data-original="#000000" class=""/><path d="m111.582 60.863c-.79-.29-1.674-.052-2.216.591l-8.671 10.305c-.02.021-.038.042-.056.063l-18.456 21.935c-.501.596-.611 1.427-.283 2.132s1.036 1.156 1.813 1.156h27.184c1.104 0 2-.896 2-2v-32.303c-.001-.84-.526-1.591-1.315-1.879zm-2.686 21.801-6.598-6.597 2.585-3.072 4.013 4.013z" fill="#72788866" data-original="#000000" class=""/></g></g></svg>